<?xml version="1.0" encoding="UTF-8"?>
<!DOCTYPE svg PUBLIC "-//W3C//DTD SVG 1.1//EN" "http://www.w3.org/Graphics/SVG/1.1/DTD/svg11.dtd">
<!-- Creator: CorelDRAW 2020 (64-Bit) -->
<svg xmlns="http://www.w3.org/2000/svg" xml:space="preserve" width="133.943mm" height="20.0924mm" version="1.1" style="shape-rendering:geometricPrecision; text-rendering:geometricPrecision; image-rendering:optimizeQuality; fill-rule:evenodd; clip-rule:evenodd"
viewBox="0 0 601.51 90.23"
 xmlns:xlink="http://www.w3.org/1999/xlink"
 xmlns:xodm="http://www.corel.com/coreldraw/odm/2003">
 <defs>
  <style type="text/css">
   <![CDATA[
    .fil0 {fill:black;fill-rule:nonzero}
   ]]>
  </style>
 </defs>
 <g id="Layer_x0020_1">
  <metadata id="CorelCorpID_0Corel-Layer"/>
  <path class="fil0" d="M-0 89.12l0 -87.93 21.6 0 0 36.93 1.19 0 28.63 -36.93 25.47 0 -30.91 39.25 31.47 48.68 -25.81 0 -21.6 -34.29 -8.44 10.64 0 23.66 -21.6 0zm106.69 -87.93l0 87.93 -21.6 0 0 -87.93 21.6 0zm10.24 17.57l-0.04 -17.57 74.61 0 0.04 17.57 -26.7 0 0.04 70.36 -21.28 0 -0.06 -70.36 -26.62 0zm132.38 8.97c-0.3,-3.12 -1.53,-5.54 -3.75,-7.27 -2.2,-1.73 -5.36,-2.6 -9.49,-2.6 -2.68,0 -4.92,0.34 -6.71,1.05 -1.79,0.71 -3.14,1.65 -4.03,2.86 -0.91,1.21 -1.37,2.58 -1.41,4.13 -0.02,1.27 0.24,2.42 0.81,3.41 0.54,0.99 1.39,1.85 2.48,2.6 1.11,0.75 2.46,1.39 4.07,1.97 1.59,0.56 3.41,1.07 5.4,1.49l7.52 1.67c4.41,0.99 8.3,2.26 11.65,3.83 3.36,1.57 6.19,3.47 8.44,5.66 2.26,2.22 3.97,4.74 5.14,7.56 1.15,2.84 1.75,5.98 1.77,9.45 -0.02,5.62 -1.45,10.4 -4.25,14.39 -2.8,3.97 -6.81,7.03 -12.01,9.15 -5.22,2.12 -11.49,3.16 -18.82,3.16 -7.39,0 -13.86,-1.11 -19.36,-3.32 -5.48,-2.22 -9.75,-5.58 -12.77,-10.12 -3.04,-4.51 -4.59,-10.24 -4.69,-17.17l20.65 0c0.18,2.78 0.93,5.12 2.26,7.01 1.33,1.87 3.16,3.3 5.5,4.29 2.32,0.97 5.06,1.45 8.18,1.45 2.8,0 5.18,-0.38 7.15,-1.13 1.98,-0.77 3.51,-1.81 4.55,-3.14 1.07,-1.33 1.61,-2.86 1.63,-4.57 -0.02,-1.63 -0.52,-3.02 -1.51,-4.19 -0.99,-1.15 -2.5,-2.18 -4.53,-3.04 -2.03,-0.87 -4.67,-1.67 -7.9,-2.38l-9.15 -2.12c-7.62,-1.73 -13.62,-4.55 -18.03,-8.46 -4.41,-3.91 -6.59,-9.23 -6.57,-15.96 -0.02,-5.46 1.43,-10.26 4.39,-14.37 2.96,-4.09 7.07,-7.29 12.31,-9.59 5.24,-2.28 11.2,-3.43 17.89,-3.43 6.87,0 12.84,1.15 17.89,3.47 5.06,2.32 8.97,5.56 11.75,9.73 2.76,4.17 4.19,9.01 4.25,14.53l-20.69 0zm85.37 -26.54l21.64 0 0 56.68c0,6.55 -1.57,12.25 -4.69,17.11 -3.14,4.86 -7.5,8.6 -13.1,11.26 -5.6,2.66 -12.11,3.99 -19.53,3.99 -7.46,0 -14,-1.33 -19.59,-3.99 -5.6,-2.66 -9.95,-6.41 -13.06,-11.26 -3.1,-4.86 -4.65,-10.56 -4.65,-17.11l0 -56.68 21.6 0 0 54.79c0,3 0.64,5.68 1.97,8 1.31,2.34 3.16,4.17 5.52,5.48 2.38,1.31 5.12,1.97 8.2,1.97 3.12,0 5.86,-0.67 8.2,-1.97 2.36,-1.31 4.19,-3.14 5.5,-5.48 1.31,-2.32 1.97,-5 1.97,-8l0 -54.79zm109.65 0l0.04 87.93 -18.3 0 -34.52 -50.11 -0.58 0 0 50.11 -21.6 0 0 -87.93 18.54 0 34.13 49.97 0.73 0.06 0 -50.03 21.56 0zm13.06 87.93l0 -87.93 61.56 0 0.04 17.57 -40 0 0 17.59 36.79 0.06 0.04 17.51 -36.83 0 0 17.65 39.96 0 0 17.55 -61.56 0zm122.23 -61.4c-0.3,-3.12 -1.53,-5.54 -3.75,-7.27 -2.2,-1.73 -5.36,-2.6 -9.49,-2.6 -2.68,0 -4.92,0.34 -6.71,1.05 -1.79,0.71 -3.14,1.65 -4.03,2.86 -0.91,1.21 -1.37,2.58 -1.41,4.13 -0.02,1.27 0.24,2.42 0.81,3.41 0.54,0.99 1.39,1.85 2.48,2.6 1.11,0.75 2.46,1.39 4.07,1.97 1.59,0.56 3.41,1.07 5.4,1.49l7.52 1.67c4.41,0.99 8.3,2.26 11.65,3.83 3.36,1.57 6.19,3.47 8.44,5.66 2.26,2.22 3.97,4.74 5.14,7.56 1.15,2.84 1.75,5.98 1.77,9.45 -0.02,5.62 -1.45,10.4 -4.25,14.39 -2.8,3.97 -6.81,7.03 -12.01,9.15 -5.22,2.12 -11.49,3.16 -18.82,3.16 -7.39,0 -13.86,-1.11 -19.36,-3.32 -5.48,-2.22 -9.75,-5.58 -12.77,-10.12 -3.04,-4.51 -4.59,-10.24 -4.69,-17.17l20.65 0c0.18,2.78 0.93,5.12 2.26,7.01 1.33,1.87 3.16,3.3 5.5,4.29 2.32,0.97 5.06,1.45 8.18,1.45 2.8,0 5.18,-0.38 7.15,-1.13 1.98,-0.77 3.51,-1.81 4.55,-3.14 1.07,-1.33 1.61,-2.86 1.63,-4.57 -0.02,-1.63 -0.52,-3.02 -1.51,-4.19 -0.99,-1.15 -2.5,-2.18 -4.53,-3.04 -2.03,-0.87 -4.67,-1.67 -7.9,-2.38l-9.15 -2.12c-7.62,-1.73 -13.62,-4.55 -18.03,-8.46 -4.41,-3.91 -6.59,-9.23 -6.57,-15.96 -0.02,-5.46 1.43,-10.26 4.39,-14.37 2.96,-4.09 7.07,-7.29 12.31,-9.59 5.24,-2.28 11.2,-3.43 17.89,-3.43 6.87,0 12.84,1.15 17.89,3.47 5.06,2.32 8.97,5.56 11.75,9.73 2.76,4.17 4.19,9.01 4.25,14.53l-20.69 0z"/>
 </g>
</svg>
